<svg width="25" height="28" viewBox="0 0 25 28" fill="none" xmlns="http://www.w3.org/2000/svg">
<path fill-rule="evenodd" clip-rule="evenodd" d="M0 12.631V12.6415L0.00063163 12.6521C0.239585 16.6338 1.83629 19.2809 3.80446 21.1092C5.75502 22.9211 8.06073 23.9185 9.70354 24.6291L9.70356 24.6291L9.71752 24.6351L9.77838 24.6616L9.78588 24.6646C10.741 25.052 11.1564 25.5959 11.3432 26.0147C11.4386 26.2286 11.4781 26.4186 11.494 26.5523C11.502 26.619 11.5039 26.6712 11.5041 26.7044C11.5042 26.7141 11.5041 26.7221 11.5039 26.7284C11.5038 26.7329 11.5037 26.7366 11.5035 26.7393L11.5033 26.7448L11.4955 26.8324L11.5324 26.9155L11.5331 26.917L11.5342 26.9193L11.5374 26.9263L11.5481 26.949C11.5571 26.9676 11.5698 26.9931 11.5857 27.0228C11.6166 27.0802 11.6637 27.1613 11.7229 27.2388C11.7752 27.3074 11.8677 27.415 11.9992 27.4759C12.0648 27.5062 12.1501 27.5296 12.2472 27.5212C12.3787 27.5369 12.4811 27.4816 12.5162 27.4617C12.6107 27.408 12.6967 27.3216 12.7509 27.2639C12.8133 27.1974 12.8718 27.1266 12.9133 27.0746C12.9344 27.0481 12.9519 27.0254 12.9643 27.0091L12.979 26.9897L12.9832 26.9841L12.9844 26.9825L12.9851 26.9816L13.0641 26.8745L13.0527 26.7444L13.0524 26.7393C13.0521 26.7328 13.0518 26.721 13.0519 26.7044C13.052 26.6712 13.054 26.619 13.0619 26.5523C13.0778 26.4186 13.1174 26.2286 13.2128 26.0147C13.3996 25.5959 13.815 25.0521 14.7701 24.6647L14.8525 24.6291C16.4953 23.9185 18.801 22.9211 20.7515 21.1092C22.7197 19.2808 24.3164 16.6338 24.5553 12.6521L24.556 12.6415V12.631C24.556 6.09167 19.268 0.771422 12.6536 0.490778V0.47583L12.2977 0.480054L12.278 0.480303L12.2583 0.480054L11.9024 0.47583V0.490778C5.28794 0.771422 0 6.09167 0 12.631ZM12.7378 26.3527C12.6875 26.6063 12.7021 26.7727 12.7021 26.7727C12.7021 26.7727 12.7021 26.7727 12.7021 26.7727C12.7019 26.7707 12.6878 26.6048 12.7378 26.3527ZM23.7971 15.3057C24.0052 14.4912 24.146 13.6024 24.2043 12.631C24.2043 6.29364 19.0813 1.12311 12.6536 0.84281L12.6058 0.840817C12.5048 0.836798 12.4035 0.833986 12.3019 0.832396L12.3019 0.832395V0.832445C18.8934 0.935612 24.2042 6.17852 24.2042 12.631C24.1459 13.6024 24.0052 14.4912 23.7971 15.3057ZM12.2798 0.83207L12.278 0.832044L12.2541 0.831738C12.1525 0.833329 12.0512 0.836798 11.9502 0.840817L11.9024 0.84281C7.60502 1.03021 3.89089 3.40342 1.90096 6.84978C3.94499 3.30977 7.80821 0.902029 12.2541 0.832445V0.831787L12.278 0.832093L12.2798 0.83207Z" fill="#FF4433"/>
<path fill-rule="evenodd" clip-rule="evenodd" d="M13.9107 6.43286H7.37451V17.8907H13.0839V17.8908H14.8132V17.8908H17.8772V9.91526H16.8504V8.83444H14.8132V10.816H16.8864V11.8788H14.8132V12.3651H16.8864V13.4279H14.8132V15.3735H13.9107V6.43286ZM11.3741 7.84366H12.8693V9.86122H11.3741V7.84366ZM16.9045 13.8243H15.4093V14.8871H16.9045V13.8243ZM8.83416 10.3836H10.3293V13.8783H8.83416V10.3836ZM12.8693 10.3836H11.3741V13.8783H12.8693V10.3836ZM10.3244 7.84375H8.82924V9.86131H10.3244V7.84375ZM9.84186 14.8972H11.9221V17.8849H9.84186V14.8972Z" fill="white"/>
</svg>
