<svg width="12" height="7" viewBox="0 0 12 7" fill="none" xmlns="http://www.w3.org/2000/svg">
<path fill-rule="evenodd" clip-rule="evenodd" d="M5.42464 6.49677C5.07955 6.15168 5.02833 5.64341 5.31024 5.3615L10.4895 0.182274C10.7714 -0.0996295 11.2796 -0.0484101 11.6247 0.296676C11.9698 0.641761 12.021 1.15004 11.7391 1.43194L6.5599 6.61117C6.278 6.89307 5.76972 6.84185 5.42464 6.49677Z" fill="#2787F5"/>
<path fill-rule="evenodd" clip-rule="evenodd" d="M6.62471 6.49651C6.96979 6.15142 7.02101 5.64315 6.73911 5.36124L1.55987 0.18201C1.27797 -0.099893 0.769696 -0.0486737 0.424611 0.296412C0.079525 0.641497 0.028306 1.14977 0.310209 1.43168L5.48944 6.61091C5.77135 6.89281 6.27962 6.84159 6.62471 6.49651Z" fill="#2787F5"/>
</svg>
