<svg width="18" height="18" viewBox="0 0 18 18" fill="none" xmlns="http://www.w3.org/2000/svg">
<path opacity="0.5" d="M3 0H15C16.657 0 18 1.343 18 3V15C18 16.657 16.657 18 15 18H3C1.343 18 0 16.657 0 15V3C0 1.343 1.343 0 3 0ZM7.459 14H13.624C13.832 14 14 13.83 14 13.621V11.001C13.333 10.334 13 9.668 13 9.001V6.501C13 6.225 13.224 6.001 13.5 6.001H14C14.006 4.668 13.006 4.001 11 4.001H2V6.001H3.538C3.793 6.001 4 6.208 4 6.463V8.54C4 8.795 3.793 9.002 3.538 9.002H2V11.843C2.537 11.035 3.457 10.502 4.5 10.502C6.157 10.502 7.5 11.845 7.5 13.502C7.5 13.672 7.486 13.839 7.459 14.002V14ZM4.5 15C5.328 15 6 14.328 6 13.5C6 12.672 5.328 12 4.5 12C3.672 12 3 12.672 3 13.5C3 14.328 3.672 15 4.5 15ZM5.462 6H7.539C7.794 6 8.001 6.207 8.001 6.462V8.539C8.001 8.794 7.794 9.001 7.539 9.001H5.462C5.207 9.001 5 8.794 5 8.539V6.462C5 6.207 5.207 6 5.462 6ZM9.462 6H11.539C11.794 6 12.001 6.193 12.001 6.431V12.569C12.001 12.807 11.794 13 11.539 13H9.462C9.207 13 9 12.807 9 12.569V6.431C9 6.193 9.207 6 9.462 6Z" fill="black"/>
</svg>
