<?xml version="1.0" encoding="utf-8"?>
<!-- Generator: Adobe Illustrator 23.0.1, SVG Export Plug-In . SVG Version: 6.00 Build 0)  -->
<svg version="1.1" id="Слой_1" xmlns="http://www.w3.org/2000/svg" xmlns:xlink="http://www.w3.org/1999/xlink" x="0px" y="0px"
	 viewBox="0 0 18 18" style="enable-background:new 0 0 18 18;" xml:space="preserve">
<style type="text/css">
	.st0{fill-rule:evenodd;clip-rule:evenodd;fill:#2787F5;}
</style>
<g>
	<path class="st0" d="M0.3,17.7c-0.5-0.5-0.4-1.3,0.1-1.9L15.8,0.5c0.6-0.6,1.4-0.6,1.9-0.1c0.5,0.5,0.4,1.3-0.1,1.9L2.2,17.5
		C1.7,18.1,0.8,18.2,0.3,17.7z"/>
	<path class="st0" d="M17.7,17.7c0.5-0.5,0.4-1.3-0.1-1.9L2.2,0.5C1.7-0.1,0.8-0.2,0.3,0.3c-0.5,0.5-0.4,1.3,0.1,1.9l15.3,15.3
		C16.3,18.1,17.2,18.2,17.7,17.7z"/>
</g>
</svg>
