<svg width="20" height="21" viewBox="0 0 20 21" fill="none" xmlns="http://www.w3.org/2000/svg">
<path d="M16.0743 20.5C15.2422 20.5 14.2372 20.2915 13.1319 19.8744C10.7089 18.9609 8.07256 17.1553 5.7087 14.7915C3.34416 12.4269 1.53863 9.78995 0.624436 7.36689C-0.206348 5.1638 -0.208366 3.35558 0.619727 2.52816C0.738795 2.40909 0.859881 2.28128 0.985003 2.14943C1.74044 1.35497 2.5941 0.460956 3.72558 0.501318C4.50524 0.533608 5.26068 1.01795 6.03428 1.98058C8.32012 4.82341 7.28954 5.8365 6.09685 7.01103L5.88629 7.21957C5.69121 7.41465 5.32257 8.31808 8.75199 11.7475C9.87136 12.8669 10.8259 13.6862 11.5888 14.182C12.0691 14.4941 12.9281 14.9664 13.2806 14.6139L13.4925 14.4C14.6657 13.21 15.6788 12.1827 18.5196 14.4666C19.4822 15.2402 19.9659 15.9949 19.9982 16.7759C20.0446 17.9067 19.1438 18.7624 18.3487 19.5172C18.2175 19.6423 18.0897 19.7634 17.9707 19.8818C17.5596 20.2935 16.9024 20.5 16.0743 20.5Z" fill="#2787F5"/>
</svg>
