<svg width="20" height="16" viewBox="0 0 20 16" fill="none" xmlns="http://www.w3.org/2000/svg">
<path opacity="0.6" d="M19.6094 5.82227C18.6719 6.56445 16.6406 8.04883 13.5938 10.2363L13.2031 10.5488C12.5781 11.0176 12.1094 11.3691 11.7188 11.5645C11.0938 11.9551 10.5078 12.1113 10 12.1113C9.45312 12.1113 8.90625 11.9551 8.28125 11.6035C7.89062 11.4082 7.42188 11.0566 6.79688 10.5879L6.40625 10.2363C3.24219 7.9707 1.25 6.48633 0.390625 5.82227C0.3125 5.7832 0.195312 5.7832 0.117188 5.82227C0.0390625 5.86133 0 5.93945 0 6.01758V13.9863C0 14.5332 0.15625 14.9629 0.546875 15.3145C0.898438 15.7051 1.32812 15.8613 1.875 15.8613H18.125C18.6328 15.8613 19.0625 15.7051 19.4531 15.3145C19.8047 14.9629 20 14.5332 20 13.9863V6.01758C20 5.93945 19.9219 5.86133 19.8438 5.7832C19.7656 5.74414 19.6875 5.74414 19.6094 5.82227ZM10 10.8613C9.64844 10.8613 9.21875 10.7051 8.75 10.3926C8.4375 10.2363 8.04688 9.96289 7.53906 9.5332L7.14844 9.25977C3.94531 6.91602 1.75781 5.31445 0.625 4.41602L0.351562 4.2207C0.117188 4.06445 0 3.79102 0 3.47852V2.73633C0 2.22852 0.15625 1.79883 0.546875 1.4082C0.898438 1.05664 1.32812 0.861328 1.875 0.861328H18.125C18.6328 0.861328 19.0625 1.05664 19.4531 1.4082C19.8047 1.79883 20 2.22852 20 2.73633V3.47852C20 3.79102 19.8828 4.06445 19.6484 4.2207L19.4531 4.37695C18.3203 5.27539 16.1328 6.91602 12.8516 9.25977L12.4609 9.5332C11.9141 9.96289 11.5234 10.2363 11.25 10.3926C10.7422 10.7051 10.3125 10.8613 10 10.8613Z" fill="white"/>
</svg>
