<svg width="38" height="33" viewBox="0 0 38 33" fill="none" xmlns="http://www.w3.org/2000/svg">
<path d="M9.30078 23.9C9.30078 25.8 10.1008 27.7 11.5008 29.1C12.9008 30.5 14.7008 31.3 16.7008 31.3H19.1008C19.6008 31.3 20.1008 31.1 20.4008 30.8C20.7008 30.5 20.9008 30 20.9008 29.5C20.9008 29 20.7008 28.5 20.4008 28.2C20.1008 27.9 19.6008 27.7 19.1008 27.7H16.7008C15.7008 27.7 14.8008 27.3 14.1008 26.6C13.4008 25.9 13.0008 25 13.0008 24C13.0008 23 13.4008 22.1 14.1008 21.4C14.8008 20.7 15.7008 20.3 16.7008 20.3H30.5008C32.3008 20.3 34.1008 19.6 35.4008 18.3C36.7008 17 37.4008 15.3 37.4008 13.4C37.4008 11.5 36.7008 9.8 35.4008 8.5C34.1008 7.2 32.4008 6.5 30.5008 6.5H20.6008C20.1008 6.5 19.6008 6.7 19.3008 7C19.0008 7.3 18.8008 7.8 18.8008 8.3C18.8008 8.8 19.0008 9.3 19.3008 9.6C19.6008 9.9 20.1008 10.1 20.6008 10.1H30.5008C31.4008 10.1 32.2008 10.4 32.8008 11C33.4008 11.6 33.7008 12.4 33.7008 13.3C33.7008 14.2 33.4008 15 32.8008 15.6C32.2008 16.2 31.4008 16.5 30.5008 16.5H16.6008C14.7008 16.5 12.8008 17.3 11.4008 18.7C10.1008 20.1 9.30078 22 9.30078 23.9Z" fill="#2787F5"/>
<path d="M25.3996 32.6C27.1996 32.6 28.6996 31.1 28.6996 29.3C28.6996 27.5 27.1996 26 25.3996 26C23.5996 26 22.0996 27.5 22.0996 29.3C22.0996 31.1 23.5996 32.6 25.3996 32.6Z" fill="#2787F5"/>
<path d="M7.99969 0.500081C3.59969 0.500081 -0.000309512 4.20008 0.0996905 8.70008C0.19969 12.4001 2.69969 15.5001 6.09969 16.4001C6.19969 16.4001 6.39969 16.5001 6.39969 16.5001L7.99969 20.2001L9.69969 16.5001H9.89969C13.5997 15.7001 16.2997 12.4001 16.1997 8.50008C16.1997 4.00008 12.4997 0.400081 7.99969 0.500081ZM8.19969 10.6001C6.99969 10.6001 6.09969 9.70008 6.09969 8.50008C6.09969 7.30008 6.99969 6.50008 8.09969 6.50008C9.19969 6.50008 10.1997 7.40008 10.1997 8.60008C10.1997 9.80008 9.39969 10.6001 8.19969 10.6001Z" fill="#2787F5"/>
</svg>
