<?xml version="1.0" encoding="utf-8"?>
<!-- Generator: Adobe Illustrator 23.0.5, SVG Export Plug-In . SVG Version: 6.00 Build 0)  -->
<svg version="1.1" xmlns="http://www.w3.org/2000/svg" xmlns:xlink="http://www.w3.org/1999/xlink" x="0px" y="0px"
	 viewBox="0 0 20 20" style="enable-background:new 0 0 20 20;" xml:space="preserve">
<style type="text/css">
	.st0{fill-rule:evenodd;clip-rule:evenodd;fill:#2787F5;}
</style>
<g id="Слой_1">
	<path class="st0" d="M0,10c0-0.8,0.5-1.5,1.2-1.5l17.7,0c0.6,0,1.2,0.7,1.2,1.5c0,0.8-0.5,1.5-1.2,1.5H1.2C0.5,11.5,0,10.8,0,10z"
		/>
</g>
<g id="Слой_1__x28_копия_x29_">
	<path class="st0" d="M10,20c-0.8,0-1.5-0.5-1.5-1.2l0-17.7C8.5,0.5,9.2,0,10,0c0.8,0,1.5,0.5,1.5,1.2v17.7C11.5,19.5,10.8,20,10,20
		z"/>
</g>
</svg>
