<svg width="7" height="13" viewBox="0 0 7 13" fill="none" xmlns="http://www.w3.org/2000/svg">
<path fill-rule="evenodd" clip-rule="evenodd" d="M6.55642 6.186C6.63905 6.25222 6.6923 6.3483 6.70465 6.45347C6.717 6.55864 6.68746 6.66444 6.62242 6.748C6.5593 6.82905 6.46708 6.88233 6.36533 6.89651C6.26359 6.9107 6.16031 6.88469 6.07742 6.824L4.72742 5.836L4.76042 5.645L4.82342 5.277L4.83942 5.182L4.85042 5.029L4.86642 4.835L4.88042 4.669L6.55642 6.186ZM5.40442 8.733L6.29242 11.889C6.32738 12.011 6.3126 12.1419 6.25132 12.253C6.19004 12.3641 6.08725 12.4465 5.96542 12.482C5.84939 12.5146 5.7253 12.502 5.61821 12.4467C5.51112 12.3914 5.429 12.2975 5.38842 12.184L4.32842 9.242L2.54242 7.437C2.46394 7.35621 2.40621 7.25761 2.37416 7.14963C2.34212 7.04166 2.33672 6.92752 2.35842 6.817L2.73942 4.623L1.88142 4.88L1.12642 6.656C1.10642 6.70424 1.07706 6.74804 1.04002 6.78486C1.00299 6.82168 0.959017 6.85078 0.910659 6.8705C0.8623 6.89022 0.810512 6.90015 0.758291 6.89972C0.70607 6.89929 0.654452 6.88851 0.606424 6.868C0.511721 6.82708 0.436376 6.75131 0.395984 6.65637C0.355591 6.56144 0.353243 6.45462 0.389424 6.358L1.15242 4.353C1.18803 4.25754 1.2579 4.17875 1.34842 4.132L1.39642 4.107L3.30542 3.122L3.32742 3.112C3.4435 3.04909 3.57787 3.02858 3.70742 3.054C3.87842 3.087 4.02642 3.186 4.09842 3.336C4.17142 3.487 4.19642 3.764 4.19642 3.764C4.23842 4.011 4.24042 4.252 4.26142 4.495C4.27642 4.738 4.27542 4.978 4.27042 5.218C4.25742 5.697 4.22642 6.173 4.16342 6.645L4.12842 6.924L5.29142 8.528L5.33542 8.588C5.36728 8.63173 5.391 8.68085 5.40542 8.733H5.40442ZM5.12142 1.5C5.12142 2.052 4.67842 2.5 4.13142 2.5C4.00059 2.49961 3.87112 2.47342 3.75042 2.42292C3.62972 2.37243 3.52016 2.29863 3.42802 2.20574C3.33588 2.11286 3.26296 2.00271 3.21344 1.88161C3.16392 1.76051 3.13877 1.63083 3.13942 1.5C3.13942 0.948 3.58342 0.5 4.13042 0.5C4.67842 0.5 5.12142 0.948 5.12142 1.5ZM2.79842 8.505C3.03442 8.723 3.27542 8.932 3.48642 9.102L3.24642 9.609L1.63642 12.27C1.60428 12.3238 1.56178 12.3706 1.51138 12.4078C1.46099 12.445 1.40371 12.4718 1.34287 12.4867C1.28203 12.5016 1.21883 12.5042 1.15696 12.4945C1.09508 12.4848 1.03576 12.4628 0.982424 12.43C0.880269 12.3659 0.805644 12.2661 0.773104 12.15C0.740564 12.0339 0.752443 11.9098 0.806424 11.802L2.14842 9.14C2.17042 8.928 2.18842 8.716 2.21642 8.505L2.28642 8.015L2.37142 8.098C2.50342 8.232 2.65142 8.368 2.79842 8.504V8.505Z" fill="#FDBAB2"/>
</svg>
